Coordinates
version=1
nRows=32
nColumns=12
inDegrees=yes

Units are S.I. units (second, meters, Newtons, ...)
Angles are in degrees

endheader
time	SC_y	SC_z	SC_x	AC_y	AC_z	AC_x	GH_y	GH_z	GH_yy	EL_x	PS_y
       0.0              -27.41         0.7823          83.66          30.17         -16.49          9.929          148.8          82.48          19.14          77.73          113.4
  0.007548              -27.42         0.7824          83.65          30.18         -16.48          9.925          148.7          82.47          19.13          77.73          113.4
    0.0151              -27.42         0.7826          83.64          30.18         -16.48          9.921          148.7          82.47          19.12          77.73          113.3
   0.02264              -27.42         0.7827          83.63          30.19         -16.48          9.917          148.7          82.46          19.11          77.72          113.3
   0.03019              -27.43         0.7828          83.62           30.2         -16.48          9.912          148.7          82.46          19.09          77.72          113.3
   0.03774              -27.43          0.783          83.61           30.2         -16.47          9.907          148.7          82.45          19.08          77.71          113.3
   0.04529              -27.43         0.7832          83.59          30.21         -16.47          9.902          148.7          82.45          19.06          77.71          113.3
   0.05284              -27.43         0.7833          83.58          30.22         -16.47          9.896          148.7          82.44          19.05           77.7          113.3
   0.06038              -27.44         0.7835          83.57          30.22         -16.47           9.89          148.7          82.44          19.03          77.69          113.3
   0.06793              -27.44         0.7837          83.55          30.23         -16.46          9.884          148.6          82.43          19.01          77.69          113.3
   0.07548              -27.45         0.7839          83.53          30.24         -16.46          9.877          148.6          82.42          18.99          77.68          113.3
   0.08303              -27.45         0.7842          83.51          30.25         -16.45          9.869          148.6          82.42          18.97          77.67          113.2
   0.09057              -27.46         0.7844          83.49          30.26         -16.45          9.861          148.6          82.41          18.94          77.66          113.2
   0.09812              -27.46         0.7847          83.47          30.27         -16.44          9.852          148.6           82.4          18.92          77.65          113.2
    0.1057              -27.47          0.785          83.45          30.28         -16.44          9.843          148.5          82.39          18.89          77.64          113.2
    0.1132              -27.47         0.7853          83.42           30.3         -16.43          9.833          148.5          82.38          18.86          77.63          113.2
    0.1208              -27.48         0.7857          83.39          30.31         -16.43          9.821          148.5          82.37          18.82          77.62          113.1
    0.1283              -27.49          0.786          83.36          30.33         -16.42          9.809          148.5          82.36          18.79          77.61          113.1
    0.1359               -27.5         0.7865          83.33          30.34         -16.41          9.796          148.4          82.35          18.75           77.6          113.1
    0.1434               -27.5         0.7869          83.29          30.36         -16.41          9.782          148.4          82.33          18.71          77.58          113.1
     0.151              -27.51         0.7874          83.25          30.38          -16.4          9.766          148.3          82.32          18.66          77.56          113.0
    0.1585              -27.53         0.7879          83.21           30.4         -16.39          9.748          148.3           82.3          18.61          77.55          113.0
    0.1661              -27.54         0.7885          83.16          30.43         -16.38          9.729          148.2          82.28          18.55          77.53          112.9
    0.1736              -27.55         0.7892          83.11          30.46         -16.37          9.707          148.2          82.26          18.48           77.5          112.9
    0.1811              -27.56           0.79          83.05          30.49         -16.35          9.683          148.1          82.24          18.41          77.48          112.8
    0.1887              -27.58         0.7908          82.98          30.52         -16.34          9.657          148.1          82.21          18.33          77.45          112.8
    0.1962               -27.6         0.7917           82.9          30.56         -16.32          9.627          148.0          82.18          18.25          77.42          112.7
    0.2038              -27.62         0.7928          82.82           30.6         -16.31          9.594          147.9          82.15          18.15          77.38          112.7
    0.2113              -27.64         0.7939          82.73          30.65         -16.28          9.556          147.8          82.12          18.03          77.35          112.6
    0.2189              -27.67         0.7953          82.62           30.7         -16.26          9.513          147.7          82.07           17.9           77.3          112.5
    0.2264               -27.7         0.7968          82.49          30.76         -16.24          9.464          147.6          82.03          17.76          77.25          112.4
     0.234              -27.73         0.7985          82.35          30.84          -16.2          9.407          147.4          81.97          17.59          77.19          112.3
